<?xml version="1.0" standalone="no"?>
<!DOCTYPE svg PUBLIC "-//W3C//DTD SVG 20010904//EN"
 "http://www.w3.org/TR/2001/REC-SVG-20010904/DTD/svg10.dtd">
<svg version="1.0" xmlns="http://www.w3.org/2000/svg"
 width="270.000000pt" height="270.000000pt" viewBox="0 0 270.000000 270.000000"
 preserveAspectRatio="xMidYMid meet">
<metadata>
Created by potrace 1.14, written by Peter Selinger 2001-2017
</metadata>
<g transform="translate(0.000000,270.000000) scale(0.100000,-0.100000)"
fill="#000000" stroke="none">
<path d="M1200 2669 c-253 -66 -448 -260 -516 -514 -18 -65 -19 -116 -19 -770
0 -385 4 -722 8 -748 45 -279 281 -519 564 -573 386 -73 749 167 833 552 16
74 17 143 15 780 -1 624 -4 705 -19 759 -71 250 -248 432 -496 510 -85 27
-275 29 -370 4z m374 -90 c170 -56 325 -203 389 -366 19 -48 16 -52 -16 -22
-59 56 -187 126 -287 158 -89 28 -189 40 -305 36 -131 -3 -147 -6 -250 -36
-99 -30 -203 -82 -274 -140 -34 -27 -61 -44 -61 -38 0 17 51 121 84 169 16 25
54 68 83 95 170 163 413 218 637 144z m-94 -273 c216 -19 431 -140 501 -282
22 -45 24 -62 27 -219 l2 -170 -26 50 c-148 280 -472 426 -774 351 -118 -29
-226 -91 -318 -183 -46 -46 -85 -83 -88 -83 -2 0 -16 24 -30 52 -74 146 13
298 230 403 104 50 183 72 288 81 40 4 75 8 76 9 2 2 13 2 25 0 12 -2 51 -6
87 -9z m79 -361 c231 -73 396 -281 417 -526 9 -94 -27 -286 -57 -305 -5 -3
-38 12 -72 34 -68 43 -248 145 -367 209 -348 186 -536 293 -586 332 l-24 19
27 34 c169 204 417 280 662 203z m-798 -264 c-5 -9 -11 -23 -14 -31 -3 -8 -6
5 -6 29 -1 37 1 42 14 31 10 -8 12 -18 6 -29z m214 -134 c61 -35 182 -104 270
-152 88 -48 165 -91 170 -95 6 -4 55 -31 110 -60 55 -29 114 -60 130 -70 17
-10 50 -29 75 -42 98 -54 140 -84 140 -98 0 -28 -144 -157 -217 -193 -212
-107 -458 -88 -640 50 -50 38 -63 51 -118 118 -124 152 -159 395 -84 583 19
47 23 51 38 39 9 -8 66 -44 126 -80z m-121 -622 c124 -144 314 -235 501 -238
208 -3 374 66 518 216 75 79 71 79 109 -3 58 -124 -11 -254 -192 -360 -230
-136 -551 -146 -797 -25 -104 51 -185 122 -224 195 -22 42 -24 58 -27 220 l-3
175 35 -63 c19 -34 55 -87 80 -117z m1156 133 c0 -38 -1 -41 -16 -27 -12 13
-13 20 -3 42 7 15 14 27 16 27 1 0 3 -19 3 -42z m-1120 -573 c87 -56 180 -93
275 -111 11 -2 42 -8 70 -13 83 -16 260 -6 359 19 140 35 269 99 350 174 15
15 31 25 34 22 3 -3 -14 -45 -37 -92 -76 -153 -212 -271 -376 -326 -59 -19
-90 -23 -195 -22 -109 0 -134 4 -198 27 -168 61 -284 163 -366 323 -43 84 -46
107 -8 69 15 -16 56 -47 92 -70z"/>
</g>
</svg>
